<svg width="24" height="24" viewBox="0 0 24 24" fill="none" xmlns="http://www.w3.org/2000/svg">
<rect width="24" height="24" rx="12" fill="#31456A"/>
<path d="M13.1249 10.125C13.4216 10.125 13.7116 10.037 13.9583 9.87221C14.2049 9.70738 14.3972 9.47312 14.5107 9.19903C14.6243 8.92494 14.654 8.62334 14.5961 8.33237C14.5382 8.04139 14.3954 7.77412 14.1856 7.56434C13.9758 7.35456 13.7085 7.2117 13.4176 7.15382C13.1266 7.09594 12.825 7.12565 12.5509 7.23918C12.2768 7.35271 12.0425 7.54497 11.8777 7.79165C11.7129 8.03832 11.6249 8.32833 11.6249 8.625C11.6249 9.02283 11.783 9.40436 12.0643 9.68566C12.3456 9.96697 12.7271 10.125 13.1249 10.125ZM13.1249 7.875C13.2733 7.875 13.4183 7.91899 13.5416 8.0014C13.6649 8.08381 13.7611 8.20094 13.8178 8.33799C13.8746 8.47503 13.8894 8.62583 13.8605 8.77132C13.8316 8.9168 13.7601 9.05044 13.6552 9.15533C13.5504 9.26022 13.4167 9.33165 13.2712 9.36059C13.1258 9.38953 12.975 9.37468 12.8379 9.31791C12.7009 9.26114 12.5837 9.16502 12.5013 9.04168C12.4189 8.91834 12.3749 8.77334 12.3749 8.625C12.3749 8.42609 12.4539 8.23532 12.5946 8.09467C12.7352 7.95402 12.926 7.875 13.1249 7.875ZM16.2801 12.5944C16.2515 12.6075 15.929 12.7481 15.358 12.7481C14.7088 12.7481 13.7385 12.5663 12.5132 11.8106C12.3267 12.3401 12.0846 12.8482 11.7909 13.3266C12.3184 13.489 12.8146 13.7395 13.2585 14.0677C14.1524 14.7492 14.6249 15.7195 14.6249 16.875C14.6249 16.9745 14.5854 17.0698 14.5151 17.1402C14.4448 17.2105 14.3494 17.25 14.2499 17.25C14.1505 17.25 14.0551 17.2105 13.9848 17.1402C13.9144 17.0698 13.8749 16.9745 13.8749 16.875C13.8749 14.9203 12.2488 14.2167 11.3371 13.9758C11.3113 14.0086 11.2846 14.0419 11.2579 14.0742C10.3373 15.1898 9.18367 15.7702 7.90023 15.7702C7.75405 15.7708 7.60792 15.7641 7.46242 15.75C7.36296 15.7401 7.27153 15.691 7.20824 15.6136C7.14494 15.5363 7.11497 15.437 7.12492 15.3375C7.13486 15.238 7.18391 15.1466 7.26127 15.0833C7.33863 15.02 7.43796 14.9901 7.53742 15C8.75242 15.1209 9.80945 14.6489 10.678 13.5938C11.2635 12.8841 11.6624 12.0183 11.8616 11.3906C10.0373 10.3289 8.87195 11.2327 8.85929 11.2425C8.82109 11.2751 8.77673 11.2997 8.72884 11.3149C8.68094 11.33 8.63049 11.3354 8.58049 11.3307C8.53048 11.3259 8.48193 11.3112 8.43772 11.2874C8.39351 11.2635 8.35455 11.231 8.32314 11.1918C8.29173 11.1526 8.26851 11.1075 8.25487 11.0592C8.24123 11.0108 8.23744 10.9602 8.24373 10.9104C8.25002 10.8606 8.26625 10.8125 8.29147 10.769C8.31669 10.7256 8.35038 10.6877 8.39054 10.6575C8.46086 10.6013 10.1352 9.29813 12.5863 10.9655C14.7177 12.4144 15.958 11.9175 15.9698 11.9119C16.0147 11.8907 16.0634 11.8786 16.113 11.8763C16.1627 11.8741 16.2122 11.8818 16.2589 11.8988C16.3055 11.9159 16.3483 11.9421 16.3848 11.9759C16.4212 12.0097 16.4506 12.0503 16.4712 12.0956C16.4918 12.1408 16.5032 12.1896 16.5047 12.2393C16.5063 12.289 16.4979 12.3384 16.4802 12.3848C16.4625 12.4312 16.4357 12.4737 16.4014 12.5096C16.3671 12.5456 16.326 12.5744 16.2805 12.5944H16.2801Z" fill="white"/>
</svg>
