<svg width="263" height="263" viewBox="0 0 263 263" fill="none" xmlns="http://www.w3.org/2000/svg">
<path d="M131.25 0.125C105.291 0.125 79.9154 7.82268 58.3315 22.2446C36.7475 36.6665 19.9249 57.165 9.99087 81.1478C0.0568685 105.131 -2.54232 131.521 2.52199 156.981C7.5863 182.441 20.0866 205.827 38.4423 224.183C56.7979 242.538 80.1844 255.039 105.644 260.103C131.104 265.167 157.494 262.568 181.477 252.634C205.46 242.7 225.958 225.877 240.38 204.294C254.802 182.71 262.5 157.334 262.5 131.375C262.463 96.5766 248.623 63.214 224.017 38.6078C199.411 14.0016 166.048 0.161748 131.25 0.125ZM146.394 191.952H141.346V202.048C141.346 204.726 140.282 207.294 138.389 209.187C136.496 211.08 133.928 212.144 131.25 212.144C128.572 212.144 126.004 211.08 124.111 209.187C122.218 207.294 121.154 204.726 121.154 202.048V191.952H100.962C98.2839 191.952 95.7159 190.888 93.8225 188.995C91.9291 187.101 90.8654 184.533 90.8654 181.856C90.8654 179.178 91.9291 176.61 93.8225 174.717C95.7159 172.823 98.2839 171.76 100.962 171.76H146.394C150.411 171.76 154.263 170.164 157.103 167.324C159.943 164.484 161.538 160.632 161.538 156.615C161.538 152.599 159.943 148.747 157.103 145.907C154.263 143.067 150.411 141.471 146.394 141.471H116.106C106.734 141.471 97.746 137.748 91.1191 131.121C84.4922 124.494 80.7693 115.506 80.7693 106.135C80.7693 96.7628 84.4922 87.7748 91.1191 81.1479C97.746 74.521 106.734 70.7981 116.106 70.7981H121.154V60.7019C121.154 58.0242 122.218 55.4562 124.111 53.5629C126.004 51.6695 128.572 50.6058 131.25 50.6058C133.928 50.6058 136.496 51.6695 138.389 53.5629C140.282 55.4562 141.346 58.0242 141.346 60.7019V70.7981H161.538C164.216 70.7981 166.784 71.8618 168.678 73.7552C170.571 75.6486 171.635 78.2165 171.635 80.8942C171.635 83.5719 170.571 86.1399 168.678 88.0333C166.784 89.9267 164.216 90.9904 161.538 90.9904H116.106C112.089 90.9904 108.237 92.5859 105.397 95.426C102.557 98.2661 100.962 102.118 100.962 106.135C100.962 110.151 102.557 114.003 105.397 116.843C108.237 119.683 112.089 121.279 116.106 121.279H146.394C155.766 121.279 164.754 125.002 171.381 131.629C178.008 138.256 181.731 147.244 181.731 156.615C181.731 165.987 178.008 174.975 171.381 181.602C164.754 188.229 155.766 191.952 146.394 191.952Z" fill="black"/>
</svg>
