<svg width="50" height="50" viewBox="0 0 50 50" fill="none" xmlns="http://www.w3.org/2000/svg">
<g clip-path="url(#clip0_86_411)">
<path d="M25 36.7188C25.8629 36.7188 26.5625 36.0192 26.5625 35.1562C26.5625 34.2933 25.8629 33.5938 25 33.5938C24.1371 33.5938 23.4375 34.2933 23.4375 35.1562C23.4375 36.0192 24.1371 36.7188 25 36.7188Z" fill="#0165FC"/>
<path d="M25 28.125V26.5625C28.4512 26.5625 31.25 24.1133 31.25 21.0938C31.25 18.0742 28.4512 15.625 25 15.625C21.5488 15.625 18.75 18.0742 18.75 21.0938V21.875" stroke="#0165FC" stroke-linecap="round" stroke-linejoin="round"/>
<path d="M25 43.75C35.3553 43.75 43.75 35.3553 43.75 25C43.75 14.6447 35.3553 6.25 25 6.25C14.6447 6.25 6.25 14.6447 6.25 25C6.25 35.3553 14.6447 43.75 25 43.75Z" stroke="#0165FC" stroke-linecap="round" stroke-linejoin="round"/>
</g>
<defs>
<clipPath id="clip0_86_411">
<rect width="50" height="50" fill="white"/>
</clipPath>
</defs>
</svg>
