<svg width="76" height="73" viewBox="0 0 76 73" fill="none" xmlns="http://www.w3.org/2000/svg">
<g filter="url(#filter0_dd_442_3544)">
<path d="M23.5073 63.3846H52.3308C54.2165 63.3846 55.1593 63.3846 55.7451 62.7988C56.3308 62.213 56.3308 61.2702 56.3308 59.3846V35.1978H62.8059C64.9949 35.1978 66.0895 35.1978 66.3361 34.5571C66.5828 33.9165 65.771 33.1824 64.1472 31.7143L40.609 10.4321C39.3308 9.27639 38.6917 8.69853 37.92 8.69957C37.1484 8.7006 36.5108 9.28017 35.2357 10.4393L11.8281 31.7179C10.2139 33.1853 9.40678 33.919 9.65398 34.5584C9.90117 35.1978 10.9919 35.1978 13.1734 35.1978H19.5073V59.3846C19.5073 61.2702 19.5073 62.213 20.0931 62.7988C20.6789 63.3846 21.6217 63.3846 23.5073 63.3846Z" fill="url(#paint0_linear_442_3544)"/>
<path d="M23.5073 63.8846H52.3308H52.3674C53.2791 63.8846 54.014 63.8846 54.592 63.8069C55.1921 63.7263 55.6973 63.5537 56.0986 63.1524C56.4999 62.7511 56.6725 62.2459 56.7532 61.6458C56.8309 61.0678 56.8309 60.3329 56.8308 59.4212V59.3846V35.6978H62.8059H62.8494C63.9071 35.6978 64.7556 35.6978 65.368 35.613C65.9614 35.5308 66.5706 35.3397 66.8028 34.7368C67.0349 34.1339 66.7111 33.5836 66.3261 33.1246C65.9288 32.651 65.2994 32.0819 64.5148 31.3726L64.4825 31.3434L40.9443 10.0612L40.9188 10.0381C40.3014 9.47991 39.8022 9.02855 39.3597 8.72132C38.8993 8.40173 38.4467 8.19886 37.9194 8.19957C37.392 8.20028 36.9399 8.40436 36.4804 8.72519C36.0387 9.03359 35.5408 9.48626 34.9249 10.0461L34.8994 10.0693L11.4918 31.3479L11.4596 31.3771C10.6797 32.0861 10.0539 32.6549 9.65905 33.1284C9.2762 33.5874 8.9551 34.1372 9.18761 34.7387C9.42013 35.3401 10.0276 35.531 10.6196 35.6131C11.2303 35.6978 12.076 35.6978 13.1299 35.6978H13.1734H19.0073V59.3846V59.4212C19.0073 60.3329 19.0073 61.0678 19.085 61.6458C19.1657 62.2459 19.3383 62.7511 19.7396 63.1524C20.1409 63.5537 20.6461 63.7263 21.2462 63.8069C21.8242 63.8846 22.5591 63.8846 23.4708 63.8846H23.5073Z" stroke="url(#paint1_linear_442_3544)"/>
</g>
<defs>
<filter id="filter0_dd_442_3544" x="0.60791" y="0.699585" width="74.7739" height="71.6851" filterUnits="userSpaceOnUse" color-interpolation-filters="sRGB">
<feFlood flood-opacity="0" result="BackgroundImageFix"/>
<feColorMatrix in="SourceAlpha" type="matrix" values="0 0 0 0 0 0 0 0 0 0 0 0 0 0 0 0 0 0 127 0" result="hardAlpha"/>
<feOffset dx="1" dy="1"/>
<feGaussianBlur stdDeviation="3.5"/>
<feColorMatrix type="matrix" values="0 0 0 0 0.0705882 0 0 0 0 0.239843 0 0 0 0 0.396078 0 0 0 0.26 0"/>
<feBlend mode="normal" in2="BackgroundImageFix" result="effect1_dropShadow_442_3544"/>
<feColorMatrix in="SourceAlpha" type="matrix" values="0 0 0 0 0 0 0 0 0 0 0 0 0 0 0 0 0 0 127 0" result="hardAlpha"/>
<feOffset dx="-2" dy="-1"/>
<feGaussianBlur stdDeviation="3"/>
<feColorMatrix type="matrix" values="0 0 0 0 1 0 0 0 0 1 0 0 0 0 1 0 0 0 0.1 0"/>
<feBlend mode="normal" in2="effect1_dropShadow_442_3544" result="effect2_dropShadow_442_3544"/>
<feBlend mode="normal" in="SourceGraphic" in2="effect2_dropShadow_442_3544" result="shape"/>
</filter>
<linearGradient id="paint0_linear_442_3544" x1="95.4558" y1="73.7692" x2="20.5586" y2="13.6485" gradientUnits="userSpaceOnUse">
<stop offset="0.245118" stop-color="#DEE9F3"/>
<stop offset="1" stop-color="#5F83AD"/>
</linearGradient>
<linearGradient id="paint1_linear_442_3544" x1="12.6029" y1="20.6923" x2="66.6808" y2="59.2391" gradientUnits="userSpaceOnUse">
<stop offset="0.130987" stop-color="white"/>
<stop offset="1" stop-color="#5B80A3"/>
</linearGradient>
</defs>
</svg>
