<svg width="20" height="20" viewBox="0 0 20 20" fill="none" xmlns="http://www.w3.org/2000/svg">
<g filter="url(#filter0_ii_329_2496)">
<path fill-rule="evenodd" clip-rule="evenodd" d="M10 2.35294C8.52724 2.35294 7.33333 3.40639 7.33333 4.70588C7.33333 6.00538 8.52724 7.05882 10 7.05882C11.4728 7.05882 12.6667 6.00538 12.6667 4.70588C12.6667 3.40639 11.4728 2.35294 10 2.35294ZM4.66667 4.70588C4.66667 2.1069 7.05448 0 10 0C12.9455 0 15.3333 2.1069 15.3333 4.70588C15.3333 7.30487 12.9455 9.41177 10 9.41177C7.05448 9.41177 4.66667 7.30487 4.66667 4.70588ZM0 15.7983C0 12.9209 2.64365 10.5882 5.90476 10.5882H14.0952C17.3563 10.5882 20 12.9209 20 15.7983C20 18.1188 17.868 20 15.2381 20H4.7619C2.13198 20 0 18.1188 0 15.7983ZM17.3333 15.7983C17.3333 14.2204 15.8836 12.9412 14.0952 12.9412H5.90476C4.11641 12.9412 2.66667 14.2204 2.66667 15.7983C2.66667 16.8194 3.60474 17.6471 4.7619 17.6471H15.2381C16.3953 17.6471 17.3333 16.8194 17.3333 15.7983Z" fill="#8C9FB1"/>
</g>
<defs>
<filter id="filter0_ii_329_2496" x="0" y="-1.5" width="20" height="21.5" filterUnits="userSpaceOnUse" color-interpolation-filters="sRGB">
<feFlood flood-opacity="0" result="BackgroundImageFix"/>
<feBlend mode="normal" in="SourceGraphic" in2="BackgroundImageFix" result="shape"/>
<feColorMatrix in="SourceAlpha" type="matrix" values="0 0 0 0 0 0 0 0 0 0 0 0 0 0 0 0 0 0 127 0" result="hardAlpha"/>
<feOffset dy="-1.5"/>
<feGaussianBlur stdDeviation="1.15"/>
<feComposite in2="hardAlpha" operator="arithmetic" k2="-1" k3="1"/>
<feColorMatrix type="matrix" values="0 0 0 0 0.229167 0 0 0 0 0.229167 0 0 0 0 0.229167 0 0 0 0.6 0"/>
<feBlend mode="normal" in2="shape" result="effect1_innerShadow_329_2496"/>
<feColorMatrix in="SourceAlpha" type="matrix" values="0 0 0 0 0 0 0 0 0 0 0 0 0 0 0 0 0 0 127 0" result="hardAlpha"/>
<feOffset dy="-0.5"/>
<feGaussianBlur stdDeviation="0.65"/>
<feComposite in2="hardAlpha" operator="arithmetic" k2="-1" k3="1"/>
<feColorMatrix type="matrix" values="0 0 0 0 1 0 0 0 0 1 0 0 0 0 1 0 0 0 0.6 0"/>
<feBlend mode="normal" in2="effect1_innerShadow_329_2496" result="effect2_innerShadow_329_2496"/>
</filter>
</defs>
</svg>
