<svg width="50" height="50" viewBox="0 0 50 50" fill="none" xmlns="http://www.w3.org/2000/svg">
<g clip-path="url(#clip0_86_422)">
<path d="M1.5625 23.4375H48.4375" stroke="#0165FC" stroke-linecap="round" stroke-linejoin="round"/>
<path d="M14.8438 40.625C17.8641 40.625 20.3125 38.1766 20.3125 35.1562C20.3125 32.1359 17.8641 29.6875 14.8438 29.6875C11.8234 29.6875 9.375 32.1359 9.375 35.1562C9.375 38.1766 11.8234 40.625 14.8438 40.625Z" stroke="#0165FC" stroke-linecap="round" stroke-linejoin="round"/>
<path d="M35.1562 40.625C38.1766 40.625 40.625 38.1766 40.625 35.1562C40.625 32.1359 38.1766 29.6875 35.1562 29.6875C32.1359 29.6875 29.6875 32.1359 29.6875 35.1562C29.6875 38.1766 32.1359 40.625 35.1562 40.625Z" stroke="#0165FC" stroke-linecap="round" stroke-linejoin="round"/>
<path d="M20.2578 35.9375H29.7422" stroke="#0165FC" stroke-linecap="round" stroke-linejoin="round"/>
<path d="M7.8125 23.4375L17.5566 10.0176C17.6981 9.8238 17.8823 9.66521 18.095 9.5541C18.3076 9.44299 18.543 9.38235 18.7829 9.37687C19.0228 9.37139 19.2607 9.42123 19.4782 9.52252C19.6957 9.6238 19.8869 9.77382 20.0371 9.96093L22.5645 12.8906C22.8573 13.2549 23.2281 13.5488 23.6496 13.7508C24.0712 13.9528 24.5326 14.0576 25 14.0576C25.4674 14.0576 25.9288 13.9528 26.3504 13.7508C26.7719 13.5488 27.1427 13.2549 27.4355 12.8906L29.9629 9.96093C30.1131 9.77382 30.3043 9.6238 30.5218 9.52252C30.7393 9.42123 30.9772 9.37139 31.2171 9.37687C31.457 9.38235 31.6924 9.44299 31.905 9.5541C32.1177 9.66521 32.3019 9.8238 32.4434 10.0176L42.1875 23.4375" stroke="#0165FC" stroke-linecap="round" stroke-linejoin="round"/>
</g>
<defs>
<clipPath id="clip0_86_422">
<rect width="50" height="50" fill="white"/>
</clipPath>
</defs>
</svg>
